<?xml version="1.0" ?><!DOCTYPE svg  PUBLIC '-//W3C//DTD SVG 1.1//EN'  'http://www.w3.org/Graphics/SVG/1.1/DTD/svg11.dtd'><svg enable-background="new 0 0 512 512" height="512px" id="Layer_1" version="1.1" viewBox="0 0 512 512" width="512px" xml:space="preserve" xmlns="http://www.w3.org/2000/svg" xmlns:xlink="http://www.w3.org/1999/xlink"><g id="yahoo"><path d="M254.5,16.5c-131.996,0-239,107.004-239,239s107.004,239,239,239s239-107.004,239-239   S386.496,16.5,254.5,16.5z M412.892,413.892C370.584,456.2,314.333,479.5,254.5,479.5c-59.833,0-116.084-23.3-158.392-65.608   C53.8,371.584,30.5,315.333,30.5,255.5c0-59.833,23.3-116.084,65.608-158.392C138.416,54.8,194.667,31.5,254.5,31.5   c59.833,0,116.084,23.3,158.392,65.608C455.2,139.416,478.5,195.667,478.5,255.5C478.5,315.333,455.2,371.584,412.892,413.892z" fill="#8A2A8F"/><polygon clip-rule="evenodd" fill="#8A2A8F" fill-rule="evenodd" points="378.421,343.25 346.975,339.404 350.469,311.808    381.916,315.647 378.421,343.25  "/><polygon clip-rule="evenodd" fill="#8A2A8F" fill-rule="evenodd" points="409.874,175.865 356.062,169.232 356.407,293.988    379.824,297.128 409.874,175.865  "/><polygon clip-rule="evenodd" fill="#8A2A8F" fill-rule="evenodd" points="378.421,343.25 346.975,339.404 350.469,311.808    381.916,315.647 378.421,343.25  "/><path clip-rule="evenodd" d="M301.549,197.534c-21.669-16.422-49.622-24.458-83.52-24.458   c-34.244,0-62.196,8.035-83.515,24.458c-21.664,16.071-32.499,36.694-32.499,62.204c0,25.86,10.835,46.827,32.499,62.904   c17.679,13.329,39.93,21.131,66.545,23.407h33.806c26.424-2.276,48.712-10.078,66.684-23.407   c21.314-16.076,32.148-37.043,32.148-62.904C333.696,234.229,322.862,213.606,301.549,197.534z M285.472,238.419l-16.422,3.5   c-2.449,0.691-9.087,5.588-20.618,15.026c-12.231,9.782-18.522,16.071-19.568,19.22l-0.699,8.732l-0.35,5.246l1.399,13.273   l21.664,0.351l-0.35,6.638h-35.292l-31.451,0.352l1.049-6.294l10.131-0.345c5.244-0.351,8.392-1.047,9.438-2.104   c0.698-0.691,1.046-4.885,1.046-12.226v-4.535l-0.348-9.088c-0.698-2.098-6.29-9.784-17.12-23.067   c-11.182-13.627-18.522-21.668-22.02-24.467l-20.267-2.795v-5.944c1.051-0.689,12.234-0.689,32.852-0.344   c14.324-0.345,26.208-0.345,35.643,0.344l-0.701,4.897l-21.316,2.104c6.639,9.782,16.775,23.406,30.403,40.529   c17.821-13.627,27.254-22.366,27.602-26.205l-18.167-2.798l-1.4-6.288h30.404l28.648,0.349L285.472,238.419z" fill="#8A2A8F" fill-rule="evenodd"/></g></svg>